<svg width="230" height="200" viewBox="0 0 230 200" fill="none" xmlns="http://www.w3.org/2000/svg">
<path d="M173.891 1.18126L228.703 95.189C230.436 98.1609 230.432 101.837 228.693 104.805L173.594 198.823C173.167 199.552 172.386 200 171.541 200H104.717C102.89 200 101.744 198.025 102.651 196.438L155.034 104.725C156.706 101.797 156.706 98.2028 155.034 95.2749L102.651 3.56224C101.744 1.97496 102.89 0 104.717 0H171.835C172.681 0 173.464 0.449792 173.891 1.18126Z" fill="#0066FF"/>
<path d="M71.5569 1.18126L126.369 95.189C128.102 98.1609 128.098 101.837 126.359 104.805L71.2603 198.823C70.8331 199.552 70.0518 200 69.2073 200H2.38347C0.556164 200 -0.589419 198.025 0.317177 196.438L52.7001 104.725C54.3725 101.797 54.3725 98.2028 52.7001 95.2749L0.317079 3.56224C-0.589519 1.97496 0.556064 0 2.38337 0H69.5012C70.3477 0 71.1304 0.449792 71.5569 1.18126Z" fill="#0066FF"/>
</svg>
