<?xml version="1.0" encoding="UTF-8"?>
<!--Generator: Apple Native CoreSVG 341-->
<!DOCTYPE svg
PUBLIC "-//W3C//DTD SVG 1.1//EN"
       "http://www.w3.org/Graphics/SVG/1.1/DTD/svg11.dtd">
<svg version="1.1" xmlns="http://www.w3.org/2000/svg" xmlns:xlink="http://www.w3.org/1999/xlink" viewBox="0 0 3300 2200">
 <!--glyph: "1023EB", point size: 100.0, font version: "20.0d8e1", template writer version: "138.0.0"-->
 <style>.monochrome-0 {}

.multicolor-0:tintColor {}

.hierarchical-0:primary {}

.SFSymbolsPreview007AFF {fill:#007AFF;opacity:1.0}
</style>
 <g id="Notes">
  <rect height="2200" id="artboard" style="fill:white;opacity:1" width="3300" x="0" y="0"/>
  <line style="fill:none;stroke:black;opacity:1;stroke-width:0.5;" x1="263" x2="3036" y1="292" y2="292"/>
  <text style="stroke:none;fill:black;font-family:sans-serif;font-size:13;font-weight:bold;" transform="matrix(1 0 0 1 263 322)">Weight/Scale Variations</text>
  <text style="stroke:none;fill:black;font-family:sans-serif;font-size:13;text-anchor:middle;" transform="matrix(1 0 0 1 559.711 322)">Ultralight</text>
  <text style="stroke:none;fill:black;font-family:sans-serif;font-size:13;text-anchor:middle;" transform="matrix(1 0 0 1 856.422 322)">Thin</text>
  <text style="stroke:none;fill:black;font-family:sans-serif;font-size:13;text-anchor:middle;" transform="matrix(1 0 0 1 1153.13 322)">Light</text>
  <text style="stroke:none;fill:black;font-family:sans-serif;font-size:13;text-anchor:middle;" transform="matrix(1 0 0 1 1449.84 322)">Regular</text>
  <text style="stroke:none;fill:black;font-family:sans-serif;font-size:13;text-anchor:middle;" transform="matrix(1 0 0 1 1746.56 322)">Medium</text>
  <text style="stroke:none;fill:black;font-family:sans-serif;font-size:13;text-anchor:middle;" transform="matrix(1 0 0 1 2043.27 322)">Semibold</text>
  <text style="stroke:none;fill:black;font-family:sans-serif;font-size:13;text-anchor:middle;" transform="matrix(1 0 0 1 2339.98 322)">Bold</text>
  <text style="stroke:none;fill:black;font-family:sans-serif;font-size:13;text-anchor:middle;" transform="matrix(1 0 0 1 2636.69 322)">Heavy</text>
  <text style="stroke:none;fill:black;font-family:sans-serif;font-size:13;text-anchor:middle;" transform="matrix(1 0 0 1 2933.4 322)">Black</text>
  <line style="fill:none;stroke:black;opacity:1;stroke-width:0.5;" x1="263" x2="3036" y1="1903" y2="1903"/>
  <g transform="matrix(0.2 0 0 0.2 263 1933)">
   <path d="m46.2402 4.15039c21.7773 0 39.4531-17.627 39.4531-39.4043s-17.6758-39.4043-39.4531-39.4043c-21.7285 0-39.4043 17.627-39.4043 39.4043s17.6758 39.4043 39.4043 39.4043Zm0-7.42188c-17.6758 0-31.9336-14.3066-31.9336-31.9824s14.2578-31.9824 31.9336-31.9824 31.9824 14.3066 31.9824 31.9824-14.3066 31.9824-31.9824 31.9824Zm-17.9688-31.9824c0 2.14844 1.51367 3.61328 3.75977 3.61328h10.498v10.5957c0 2.19727 1.46484 3.71094 3.61328 3.71094 2.24609 0 3.71094-1.51367 3.71094-3.71094v-10.5957h10.5957c2.19727 0 3.71094-1.46484 3.71094-3.61328 0-2.19727-1.51367-3.71094-3.71094-3.71094h-10.5957v-10.5469c0-2.24609-1.46484-3.75977-3.71094-3.75977-2.14844 0-3.61328 1.51367-3.61328 3.75977v10.5469h-10.498c-2.24609 0-3.75977 1.51367-3.75977 3.71094Z"/>
  </g>
  <g transform="matrix(0.2 0 0 0.2 281.506 1933)">
   <path d="m58.5449 14.5508c27.4902 0 49.8047-22.3145 49.8047-49.8047s-22.3145-49.8047-49.8047-49.8047-49.8047 22.3145-49.8047 49.8047 22.3145 49.8047 49.8047 49.8047Zm0-8.30078c-22.9492 0-41.5039-18.5547-41.5039-41.5039s18.5547-41.5039 41.5039-41.5039 41.5039 18.5547 41.5039 41.5039-18.5547 41.5039-41.5039 41.5039Zm-22.6562-41.5039c0 2.39258 1.66016 4.00391 4.15039 4.00391h14.3555v14.4043c0 2.44141 1.66016 4.15039 4.05273 4.15039 2.44141 0 4.15039-1.66016 4.15039-4.15039v-14.4043h14.4043c2.44141 0 4.15039-1.61133 4.15039-4.00391 0-2.44141-1.70898-4.15039-4.15039-4.15039h-14.4043v-14.3555c0-2.49023-1.70898-4.19922-4.15039-4.19922-2.39258 0-4.05273 1.70898-4.05273 4.19922v14.3555h-14.3555c-2.49023 0-4.15039 1.70898-4.15039 4.15039Z"/>
  </g>
  <g transform="matrix(0.2 0 0 0.2 304.924 1933)">
   <path d="m74.8535 28.3203c35.1074 0 63.623-28.4668 63.623-63.5742s-28.5156-63.623-63.623-63.623-63.5742 28.5156-63.5742 63.623 28.4668 63.5742 63.5742 63.5742Zm0-9.08203c-30.127 0-54.4922-24.3652-54.4922-54.4922s24.3652-54.4922 54.4922-54.4922 54.4922 24.3652 54.4922 54.4922-24.3652 54.4922-54.4922 54.4922Zm-28.8574-54.4922c0 2.58789 1.85547 4.39453 4.58984 4.39453h19.7266v19.7754c0 2.68555 1.85547 4.58984 4.44336 4.58984 2.68555 0 4.54102-1.85547 4.54102-4.58984v-19.7754h19.7754c2.68555 0 4.58984-1.80664 4.58984-4.39453 0-2.73438-1.85547-4.58984-4.58984-4.58984h-19.7754v-19.7266c0-2.73438-1.85547-4.63867-4.54102-4.63867-2.58789 0-4.44336 1.9043-4.44336 4.63867v19.7266h-19.7266c-2.73438 0-4.58984 1.85547-4.58984 4.58984Z"/>
  </g>
  <text style="stroke:none;fill:black;font-family:sans-serif;font-size:13;font-weight:bold;" transform="matrix(1 0 0 1 263 1953)">Design Variations</text>
  <text style="stroke:none;fill:black;font-family:sans-serif;font-size:13;" transform="matrix(1 0 0 1 263 1971)">Symbols are supported in up to nine weights and three scales.</text>
  <text style="stroke:none;fill:black;font-family:sans-serif;font-size:13;" transform="matrix(1 0 0 1 263 1989)">For optimal layout with text and other symbols, vertically align</text>
  <text style="stroke:none;fill:black;font-family:sans-serif;font-size:13;" transform="matrix(1 0 0 1 263 2007)">symbols with the adjacent text.</text>
  <line style="fill:none;stroke:#00AEEF;stroke-width:0.5;opacity:1.0;" x1="776" x2="776" y1="1919" y2="1933"/>
  <g transform="matrix(0.2 0 0 0.2 776 1933)">
   <path d="m16.5527 0.78125c2.58789 0 3.85742-0.976562 4.78516-3.71094l6.29883-17.2363h28.8086l6.29883 17.2363c0.927734 2.73438 2.19727 3.71094 4.73633 3.71094 2.58789 0 4.24805-1.5625 4.24805-4.00391 0-0.830078-0.146484-1.61133-0.537109-2.63672l-22.9004-60.9863c-1.12305-2.97852-3.125-4.49219-6.25-4.49219-3.02734 0-5.07812 1.46484-6.15234 4.44336l-22.9004 61.084c-0.390625 1.02539-0.537109 1.80664-0.537109 2.63672 0 2.44141 1.5625 3.95508 4.10156 3.95508Zm13.4766-28.3691 11.8652-32.8613h0.244141l11.8652 32.8613Z"/>
  </g>
  <line style="fill:none;stroke:#00AEEF;stroke-width:0.5;opacity:1.0;" x1="792.836" x2="792.836" y1="1919" y2="1933"/>
  <text style="stroke:none;fill:black;font-family:sans-serif;font-size:13;font-weight:bold;" transform="matrix(1 0 0 1 776 1953)">Margins</text>
  <text style="stroke:none;fill:black;font-family:sans-serif;font-size:13;" transform="matrix(1 0 0 1 776 1971)">Leading and trailing margins on the left and right side of each symbol</text>
  <text style="stroke:none;fill:black;font-family:sans-serif;font-size:13;" transform="matrix(1 0 0 1 776 1989)">can be adjusted by modifying the x-location of the margin guidelines.</text>
  <text style="stroke:none;fill:black;font-family:sans-serif;font-size:13;" transform="matrix(1 0 0 1 776 2007)">Modifications are automatically applied proportionally to all</text>
  <text style="stroke:none;fill:black;font-family:sans-serif;font-size:13;" transform="matrix(1 0 0 1 776 2025)">scales and weights.</text>
  <g transform="matrix(0.2 0 0 0.2 1289 1933)">
   <path d="m14.209 9.32617 8.49609 8.54492c4.29688 4.3457 9.22852 4.05273 13.8672-1.07422l53.4668-58.9355-4.83398-4.88281-53.0762 58.3984c-1.75781 2.00195-3.41797 2.49023-5.76172 0.146484l-5.85938-5.81055c-2.34375-2.29492-1.80664-4.00391 0.195312-5.81055l57.373-54.0039-4.88281-4.83398-57.959 54.4434c-4.93164 4.58984-5.32227 9.47266-1.02539 13.8184Zm32.0801-90.9668c-2.09961 2.05078-2.24609 4.93164-1.07422 6.88477 1.17188 1.80664 3.4668 2.97852 6.68945 2.14844 7.32422-1.70898 14.9414-2.00195 22.0703 2.68555l-2.92969 7.27539c-1.70898 4.15039-0.830078 7.08008 1.85547 9.81445l11.4746 11.5723c2.44141 2.44141 4.49219 2.53906 7.32422 2.05078l5.32227-0.976562 3.32031 3.36914-0.195312 2.7832c-0.195312 2.49023 0.439453 4.39453 2.88086 6.78711l3.80859 3.71094c2.39258 2.39258 5.46875 2.53906 7.8125 0.195312l14.5508-14.5996c2.34375-2.34375 2.24609-5.32227-0.146484-7.71484l-3.85742-3.80859c-2.39258-2.39258-4.24805-3.17383-6.64062-2.97852l-2.88086 0.244141-3.22266-3.17383 1.2207-5.61523c0.634766-2.83203-0.146484-5.0293-3.07617-7.95898l-10.9863-10.9375c-16.6992-16.6016-38.8672-16.2109-53.3203-1.75781Zm7.4707 1.85547c12.1582-8.88672 28.6133-7.37305 39.7461 3.75977l12.1582 12.0605c1.17188 1.17188 1.36719 2.09961 1.02539 3.80859l-1.61133 7.42188 7.51953 7.42188 4.93164-0.292969c1.26953-0.0488281 1.66016 0.0488281 2.63672 1.02539l2.88086 2.88086-12.207 12.207-2.88086-2.88086c-0.976562-0.976562-1.12305-1.36719-1.07422-2.68555l0.341797-4.88281-7.4707-7.42188-7.61719 1.26953c-1.61133 0.341797-2.34375 0.195312-3.56445-0.976562l-10.0098-10.0098c-1.26953-1.17188-1.41602-2.00195-0.634766-3.85742l4.39453-10.4492c-7.8125-7.27539-17.9688-10.4004-28.125-7.42188-0.78125 0.195312-1.07422-0.439453-0.439453-0.976562Z"/>
  </g>
  <text style="stroke:none;fill:black;font-family:sans-serif;font-size:13;font-weight:bold;" transform="matrix(1 0 0 1 1289 1953)">Exporting</text>
  <text style="stroke:none;fill:black;font-family:sans-serif;font-size:13;" transform="matrix(1 0 0 1 1289 1971)">Symbols should be outlined when exporting to ensure the</text>
  <text style="stroke:none;fill:black;font-family:sans-serif;font-size:13;" transform="matrix(1 0 0 1 1289 1989)">design is preserved when submitting to Xcode.</text>
  <text id="template-version" style="stroke:none;fill:black;font-family:sans-serif;font-size:13;text-anchor:end;" transform="matrix(1 0 0 1 3036 1933)">Template v.4.0</text>
  <text style="stroke:none;fill:black;font-family:sans-serif;font-size:13;text-anchor:end;" transform="matrix(1 0 0 1 3036 1951)">Requires Xcode 14 or greater</text>
  <text id="descriptive-name" style="stroke:none;fill:black;font-family:sans-serif;font-size:13;text-anchor:end;" transform="matrix(1 0 0 1 3036 1969)">Generated from key.2.on.ring.fill</text>
  <text style="stroke:none;fill:black;font-family:sans-serif;font-size:13;text-anchor:end;" transform="matrix(1 0 0 1 3036 1987)">Typeset at 100.0 points</text>
  <text style="stroke:none;fill:black;font-family:sans-serif;font-size:13;" transform="matrix(1 0 0 1 263 726)">Small</text>
  <text style="stroke:none;fill:black;font-family:sans-serif;font-size:13;" transform="matrix(1 0 0 1 263 1156)">Medium</text>
  <text style="stroke:none;fill:black;font-family:sans-serif;font-size:13;" transform="matrix(1 0 0 1 263 1586)">Large</text>
 </g>
 <g id="Guides">
  <g id="H-reference" style="fill:#27AAE1;stroke:none;" transform="matrix(1 0 0 1 339 696)">
   <path d="M0.993654 0L3.63775 0L29.3281-67.1323L30.0303-67.1323L30.0303-70.459L28.1226-70.459ZM11.6885-24.4799L46.9815-24.4799L46.2315-26.7285L12.4385-26.7285ZM55.1196 0L57.7637 0L30.6382-70.459L29.4326-70.459L29.4326-67.1323Z"/>
  </g>
  <line id="Baseline-S" style="fill:none;stroke:#27AAE1;opacity:1;stroke-width:0.5;" x1="263" x2="3036" y1="696" y2="696"/>
  <line id="Capline-S" style="fill:none;stroke:#27AAE1;opacity:1;stroke-width:0.5;" x1="263" x2="3036" y1="625.541" y2="625.541"/>
  <g id="H-reference" style="fill:#27AAE1;stroke:none;" transform="matrix(1 0 0 1 339 1126)">
   <path d="M0.993654 0L3.63775 0L29.3281-67.1323L30.0303-67.1323L30.0303-70.459L28.1226-70.459ZM11.6885-24.4799L46.9815-24.4799L46.2315-26.7285L12.4385-26.7285ZM55.1196 0L57.7637 0L30.6382-70.459L29.4326-70.459L29.4326-67.1323Z"/>
  </g>
  <line id="Baseline-M" style="fill:none;stroke:#27AAE1;opacity:1;stroke-width:0.5;" x1="263" x2="3036" y1="1126" y2="1126"/>
  <line id="Capline-M" style="fill:none;stroke:#27AAE1;opacity:1;stroke-width:0.5;" x1="263" x2="3036" y1="1055.54" y2="1055.54"/>
  <g id="H-reference" style="fill:#27AAE1;stroke:none;" transform="matrix(1 0 0 1 339 1556)">
   <path d="M0.993654 0L3.63775 0L29.3281-67.1323L30.0303-67.1323L30.0303-70.459L28.1226-70.459ZM11.6885-24.4799L46.9815-24.4799L46.2315-26.7285L12.4385-26.7285ZM55.1196 0L57.7637 0L30.6382-70.459L29.4326-70.459L29.4326-67.1323Z"/>
  </g>
  <line id="Baseline-L" style="fill:none;stroke:#27AAE1;opacity:1;stroke-width:0.5;" x1="263" x2="3036" y1="1556" y2="1556"/>
  <line id="Capline-L" style="fill:none;stroke:#27AAE1;opacity:1;stroke-width:0.5;" x1="263" x2="3036" y1="1485.54" y2="1485.54"/>
  <line id="right-margin-Black-S" style="fill:none;stroke:#00AEEF;stroke-width:0.5;opacity:1.0;" x1="2978.03" x2="2978.03" y1="600.785" y2="720.121"/>
  <line id="left-margin-Black-S" style="fill:none;stroke:#00AEEF;stroke-width:0.5;opacity:1.0;" x1="2888.77" x2="2888.77" y1="600.785" y2="720.121"/>
  <line id="right-margin-Regular-S" style="fill:none;stroke:#00AEEF;stroke-width:0.5;opacity:1.0;" x1="1495.52" x2="1495.52" y1="600.785" y2="720.121"/>
  <line id="left-margin-Regular-S" style="fill:none;stroke:#00AEEF;stroke-width:0.5;opacity:1.0;" x1="1404.17" x2="1404.17" y1="600.785" y2="720.121"/>
  <line id="right-margin-Ultralight-S" style="fill:none;stroke:#00AEEF;stroke-width:0.5;opacity:1.0;" x1="600.327" x2="600.327" y1="600.785" y2="720.121"/>
  <line id="left-margin-Ultralight-S" style="fill:none;stroke:#00AEEF;stroke-width:0.5;opacity:1.0;" x1="519.096" x2="519.096" y1="600.785" y2="720.121"/>
 </g>
 <g id="Symbols">
  <g id="Black-S" transform="matrix(1 0 0 1 2888.77 696)">
   <path class="monochrome-0 multicolor-0:tintColor hierarchical-0:primary SFSymbolsPreview007AFF" d="M67.2363 11.8652C69.7754 12.793 72.4121 12.0117 73.5352 9.61914L79.1016-2.34375C80.1758-4.6875 79.1504-7.42188 76.8066-8.54492L72.4609-10.5957L75.7324-17.7734C76.8555-20.2148 75.9277-22.9004 73.4863-24.0234L67.5293-26.8066C73.1445-33.5938 74.8047-41.5527 72.0703-48.9746C70.7031-52.6855 68.457-55.8105 65.625-58.2031C63.916-52.7344 60.3027-48.1934 55.5176-45.3125C55.1758-43.2617 53.8086-41.5039 51.7578-40.6738C48.584-39.6484 45.2148-41.2109 44.0918-44.2871C43.0664-47.4121 44.5312-50.7324 47.6562-51.9043C48.9746-52.3438 50.3418-52.2949 51.5625-51.9043C55.2246-54.1016 57.8613-57.7637 58.7402-62.1582C54.1016-63.7695 48.9258-63.8672 43.9453-62.0605C32.4219-57.8613 26.6113-45.3613 30.8105-33.9355C33.6426-26.123 40.5273-20.5566 48.7793-19.6289L58.2031 6.34766C58.6914 7.66602 59.7656 9.13086 61.2305 9.66797ZM19.7754 11.5723L31.7383 6.00586C34.082 4.93164 35.1074 2.09961 33.9844-0.244141L31.9336-4.58984L39.0625-8.00781C41.4551-9.17969 42.4805-11.7676 41.3574-14.209L41.0645-14.8438C40.9668-15.0391 40.918-15.1855 40.8203-15.3809C33.3984-18.3105 27.6855-24.0723 24.8535-31.7383C20.5078-43.5547 24.1699-56.543 35.2051-63.7695C25.5859-63.3301 18.0664-57.6172 15.0391-49.2676C12.207-41.4551 13.916-32.7637 19.6289-26.7578L10.1562-0.78125C9.66797 0.537109 9.57031 2.34375 10.3516 3.71094L13.5254 9.22852C14.8438 11.5723 17.3828 12.6953 19.7754 11.5723ZM22.3633-55.6152L28.7598-60.4004C28.2715-61.9141 28.0273-63.5254 28.0273-65.1855C28.0273-73.7793 34.8145-80.6641 43.457-80.6641C52.0508-80.6641 59.0332-73.7793 59.0332-65.1855C59.0332-64.1602 58.9355-63.1348 58.7402-62.1582C61.2305-61.2793 63.5742-59.9121 65.625-58.2031C66.3086-60.4004 66.6992-62.7441 66.6992-65.1855C66.6992-77.9785 56.2988-88.3301 43.457-88.3301C30.5664-88.3301 20.3613-78.0273 20.3613-65.1855C20.3613-61.7676 21.0938-58.4961 22.3633-55.6152Z"/>
  </g>
  <g id="Regular-S" transform="matrix(1 0 0 1 1404.17 696)">
   <path class="monochrome-0 multicolor-0:tintColor hierarchical-0:primary SFSymbolsPreview007AFF" d="M72.2656 18.7988C72.9492 19.0918 74.2676 18.9453 74.8047 17.8711L81.3965 3.51562C81.8848 2.44141 81.4941 1.51367 80.4688 1.02539L71.8262-3.07617L77.3438-15.0391C77.832-16.0156 77.4414-17.0898 76.3184-17.627L64.5508-23.2422C73.1934-31.0547 76.123-40.6738 72.8027-49.8047C71.2891-53.9062 68.75-57.3242 65.5273-59.7656C63.8184-54.1504 59.9609-49.4141 54.9316-46.4844C54.6387-44.5312 53.3691-42.7734 51.3184-42.041C48.3887-40.9668 45.0684-42.4805 44.043-45.5078C42.9688-48.3887 44.4336-51.709 47.4121-52.7832C49.1211-53.418 51.0254-53.125 52.4902-52.1973C56.25-54.541 59.0332-58.4473 59.9609-63.0859C54.9316-65.0879 49.1699-65.332 43.75-63.3301C31.8359-58.9844 25.8789-46.0938 30.127-34.2773C33.3984-25.3418 41.5527-19.3848 50.9766-19.3359L62.8906 13.3789C63.2324 14.3066 63.7207 14.8438 64.5508 15.2832ZM16.2109 17.7246L30.5176 10.9863C31.543 10.498 31.9336 9.47266 31.4453 8.49609L27.3926-0.244141L39.3555-5.81055C40.332-6.25 40.7715-7.32422 40.2344-8.44727L36.4746-16.6992C36.3281-17.1387 36.1328-17.627 35.9863-18.0664C30.8594-20.9961 26.709-26.0254 24.5117-32.1777C19.9219-44.8242 24.7559-58.5938 36.3281-65.7227C26.709-65.4785 18.7988-59.7168 15.5273-50.8789C12.2559-42.041 14.7461-32.1777 21.9238-26.0254L10.0098 6.68945C9.7168 7.56836 9.66797 8.34961 10.0586 9.17969L13.7207 16.8457C14.0137 17.4805 15.1367 18.2617 16.2109 17.7246ZM21.8262-58.8379L27.5391-61.084C27.002-62.7441 26.709-64.5508 26.709-66.4551C26.709-75.7812 34.0332-83.2031 43.4082-83.2031C52.7344-83.2031 60.2051-75.7812 60.2051-66.4551C60.2051-65.3809 60.1562-64.0625 59.9609-63.0859C61.9629-62.3047 63.8184-61.1328 65.5273-59.7656C66.1133-61.8164 66.5039-64.2578 66.5039-66.4551C66.5039-79.0039 56.0059-89.4043 43.457-89.4043C30.9082-89.4043 20.459-79.0039 20.459-66.4551C20.459-63.7695 20.9473-61.1816 21.8262-58.8379Z"/>
  </g>
  <g id="Ultralight-S" transform="matrix(1 0 0 1 519.096 696)">
   <path class="monochrome-0 multicolor-0:tintColor hierarchical-0:primary SFSymbolsPreview007AFF" d="M64.2281 11.4424C64.6392 11.6446 65.1402 11.5435 65.4049 11.0142L71.3609-1.75191C71.5767-2.2358 71.4132-2.75485 70.8873-3.01608L62.4718-6.89059L67.8531-18.1269C68.0689-18.604 67.8145-19.1787 67.2364-19.3979L55.6959-24.8769C63.7935-31.6904 66.587-40.2651 63.6754-48.2608C62.0709-52.7256 59.0323-56.189 55.2193-58.4033C53.7374-54.6499 51.0606-51.5029 47.7115-49.3906C48.5538-46.8926 47.3296-44.272 44.8702-43.4487C42.44-42.4653 39.7554-43.7519 38.8208-46.2798C37.8829-48.7065 39.1661-51.3911 41.6905-52.3745C43.4449-53.0093 45.3946-52.5347 46.6324-51.2437C49.6202-53.1333 51.9947-56.0405 53.2857-59.4077C48.9375-61.3189 43.8116-61.6084 38.8912-59.8335C28.7935-56.169 23.6538-45.1856 27.3115-35.0947C30.1743-27.3398 37.375-22.2002 45.6182-22.2422L56.2608 7.02153C56.4664 7.58599 56.8638 8.03228 57.5123 8.3355ZM14.3491 10.2774L27.1118 4.3565C27.6377 4.09527 27.8013 3.56938 27.5855 3.04692L23.6236-5.28463L34.9507-10.4878C35.4278-10.7002 35.5494-11.2749 35.2847-11.853L30.0264-23.2382C30.8789-23.269 31.6372-23.3486 32.4444-23.4248C28.8613-25.9912 26.0278-29.6582 24.4209-34.0395C20.4214-45.0967 25.6186-58.0034 36.9639-61.8174C26.8452-63.6167 18.0723-58.3999 14.8008-49.5166C11.9834-41.7231 14.2466-33.1313 20.5615-27.9326L9.87354 1.3311C9.67139 1.89213 9.71338 2.49175 10.0132 3.14018L13.1304 9.898C13.3325 10.3511 13.7744 10.5421 14.3491 10.2774ZM20.1914-57.2031L21.9991-58.4956C21.0533-60.6099 20.4878-63.0068 20.4878-65.5469C20.4878-75.0547 27.9483-82.5674 37.4141-82.5674C46.8311-82.5674 54.438-75.0547 54.438-65.5469C54.438-63.3374 54.0259-61.2925 53.2857-59.4077C53.9708-59.0806 54.6002-58.7715 55.2193-58.4033C56.1231-60.5903 56.6046-62.9863 56.6046-65.5469C56.6046-76.2339 48.0137-84.7271 37.4175-84.7271C26.7759-84.7271 18.3247-76.2793 18.3247-65.5469C18.3247-62.4981 18.9946-59.7285 20.1914-57.2031Z"/>
  </g>
 </g>
</svg>
